<svg class="animated" id="freepik_stories-work-time" xmlns="http://www.w3.org/2000/svg" xmlns:xlink="http://www.w3.org/1999/xlink" viewBox="0 0 500 500" version="1.1" xmlns:svgjs="http://svgjs.com/svgjs"><style>svg#freepik_stories-work-time:not(.animated) .animable {opacity: 0;}svg#freepik_stories-work-time.animated #freepik--background-simple--inject-1--inject-8 {animation: 1s 1 forwards cubic-bezier(.36,-0.01,.5,1.38) lightSpeedLeft;animation-delay: 0s;}svg#freepik_stories-work-time.animated #freepik--Window--inject-1--inject-8 {animation: 1s 1 forwards cubic-bezier(.36,-0.01,.5,1.38) fadeIn;animation-delay: 0s;}svg#freepik_stories-work-time.animated #freepik--Desk--inject-1--inject-8 {animation: 1s 1 forwards cubic-bezier(.36,-0.01,.5,1.38) slideDown;animation-delay: 0s;}svg#freepik_stories-work-time.animated #freepik--Plant--inject-1--inject-8 {animation: 1s 1 forwards cubic-bezier(.36,-0.01,.5,1.38) zoomIn;animation-delay: 0s;}svg#freepik_stories-work-time.animated #freepik--Character--inject-1--inject-8 {animation: 1s 1 forwards cubic-bezier(.36,-0.01,.5,1.38) lightSpeedRight;animation-delay: 0s;}            @keyframes lightSpeedLeft {              from {                transform: translate3d(-50%, 0, 0) skewX(20deg);                opacity: 0;              }              60% {                transform: skewX(-10deg);                opacity: 1;              }              80% {                transform: skewX(2deg);              }              to {                opacity: 1;                transform: translate3d(0, 0, 0);              }            }                    @keyframes fadeIn {                0% {                    opacity: 0;                }                100% {                    opacity: 1;                }            }                    @keyframes slideDown {                0% {                    opacity: 0;                    transform: translateY(-30px);                }                100% {                    opacity: 1;                    transform: translateY(0);                }            }                    @keyframes zoomIn {                0% {                    opacity: 0;                    transform: scale(0.5);                }                100% {                    opacity: 1;                    transform: scale(1);                }            }                    @keyframes lightSpeedRight {              from {                transform: translate3d(50%, 0, 0) skewX(-20deg);                opacity: 0;              }              60% {                transform: skewX(10deg);                opacity: 1;              }              80% {                transform: skewX(-2deg);              }              to {                opacity: 1;                transform: translate3d(0, 0, 0);              }            }        </style><!--work time bro--><g id="freepik--background-simple--inject-1--inject-8" class="animable" style="transform-origin: 248.169px 255.464px;"><path d="M309.22,78.85c-47.17-21.78-104-22.87-153-6.44C106.79,89,55.67,130.84,51,186.41c-3.46,40.78,28.6,66.23,34.21,104.25,3.41,23.09-7.34,43-9,65.3-1.41,19,5.39,37.11,18,51.19,39,43.76,115.1,60.67,160.93,17.6,18-16.95,34-40.26,58.42-48.61,49.09-16.76,124.11-21,131.5-86.5,4.5-39.92-20.07-76.91-40.71-108.82C378.5,141,354,99.54,309.22,78.85Z" style="fill: rgb(19, 84, 228); transform-origin: 248.169px 255.464px;" id="elxhmd8ffp26s" class="animable"></path><g id="elsg6p4gz8nkl"><path d="M309.22,78.85c-47.17-21.78-104-22.87-153-6.44C106.79,89,55.67,130.84,51,186.41c-3.46,40.78,28.6,66.23,34.21,104.25,3.41,23.09-7.34,43-9,65.3-1.41,19,5.39,37.11,18,51.19,39,43.76,115.1,60.67,160.93,17.6,18-16.95,34-40.26,58.42-48.61,49.09-16.76,124.11-21,131.5-86.5,4.5-39.92-20.07-76.91-40.71-108.82C378.5,141,354,99.54,309.22,78.85Z" style="fill: rgb(255, 255, 255); opacity: 0.7; transform-origin: 248.169px 255.464px;" class="animable"></path></g><path d="M309.22,78.85c-47.17-21.78-104-22.87-153-6.44C106.79,89,55.67,130.84,51,186.41c-3.46,40.78,28.6,66.23,34.21,104.25,3.41,23.09-7.34,43-9,65.3-1.41,19,5.39,37.11,18,51.19,39,43.76,115.1,60.67,160.93,17.6,18-16.95,34-40.26,58.42-48.61,49.09-16.76,124.11-21,131.5-86.5,4.5-39.92-20.07-76.91-40.71-108.82C378.5,141,354,99.54,309.22,78.85Z" style="fill: rgb(19, 84, 228); transform-origin: 248.169px 255.464px;" id="eltb51x3e8zxb" class="animable"></path><g id="el3b6a7m37vgi"><path d="M309.22,78.85c-47.17-21.78-104-22.87-153-6.44C106.79,89,55.67,130.84,51,186.41c-3.46,40.78,28.6,66.23,34.21,104.25,3.41,23.09-7.34,43-9,65.3-1.41,19,5.39,37.11,18,51.19,39,43.76,115.1,60.67,160.93,17.6,18-16.95,34-40.26,58.42-48.61,49.09-16.76,124.11-21,131.5-86.5,4.5-39.92-20.07-76.91-40.71-108.82C378.5,141,354,99.54,309.22,78.85Z" style="fill: rgb(255, 255, 255); opacity: 0.7; transform-origin: 248.169px 255.464px;" class="animable"></path></g></g><g id="freepik--Window--inject-1--inject-8" class="animable" style="transform-origin: 236.11px 213.145px;"><rect x="50.11" y="304.37" width="372" height="3.39" style="fill: rgb(38, 50, 56); transform-origin: 236.11px 306.065px;" id="elux7xg40bbf" class="animable"></rect><path d="M311.65,263a7.69,7.69,0,0,0,2.24.24s-.34-1-.37-1.1c-.35-.72-1.45-1.92-2.34-1.8a1.06,1.06,0,0,0-.86,1.34A2.23,2.23,0,0,0,311.65,263Z" style="fill: rgb(38, 50, 56); transform-origin: 312.085px 261.789px;" id="elqc6oa69csrr" class="animable"></path><path d="M332.4,257.57c-.9-.1-2,1.13-2.29,1.86,0,.07-.36,1.11-.34,1.11h0l-.55.64c-.35.43-.74.92-1.13,1.48a19.8,19.8,0,0,0-1.18,1.88,14.15,14.15,0,0,0-1,2.26v0c0-.27,0-1,0-1.06-.11-.8-.78-2.29-1.66-2.45a1.08,1.08,0,0,0-1.24,1,2.23,2.23,0,0,0,.86,1.67,7.48,7.48,0,0,0,2,.93,19,19,0,0,0-.59,2.45c-.09.48-.16,1-.22,1.46,0-.23,0-.43,0-.46-.11-.8-.78-2.28-1.66-2.44a1.07,1.07,0,0,0-1.24,1,2.24,2.24,0,0,0,.86,1.67,7.43,7.43,0,0,0,2,.91c0,.18-.05.37-.07.56-.11.91-.21,1.81-.34,2.69-.05.32-.1.62-.16.93a3.17,3.17,0,0,0,0-.4c-.1-.8-.77-2.29-1.66-2.45a1.06,1.06,0,0,0-1.23,1,2.23,2.23,0,0,0,.86,1.67,6.72,6.72,0,0,0,1.9.89c-.06.31-.13.62-.21.92s-.1.4-.16.6-.13.4-.2.6c-.13.37-.27.76-.41,1.12l-.29.72c.05-.31.13-.91.13-1a4,4,0,0,0-.55-2,1.94,1.94,0,0,0,0-.24,1.06,1.06,0,0,0-1.3-.9c-.87.23-1.43,1.76-1.47,2.56,0,.05,0,.57.05.89,0-.18-.08-.37-.13-.56-.09-.39-.19-.77-.3-1.18l-.18-.6c-.06-.2-.14-.4-.21-.61-.17-.47-.37-.94-.58-1.41a6.88,6.88,0,0,0,2-.75,2.25,2.25,0,0,0,1-1.6,1.07,1.07,0,0,0-1.15-1.1c-.9.1-1.68,1.53-1.84,2.32,0,.05-.07.63-.09.94-.13-.28-.25-.56-.39-.84-.4-.8-.83-1.61-1.26-2.41l-.39-.74a7.62,7.62,0,0,0,2.09-.77,2.25,2.25,0,0,0,1-1.61,1.07,1.07,0,0,0-1.16-1.09c-.89.1-1.67,1.53-1.83,2.32,0,.06-.09.89-.1,1.1-.28-.54-.56-1.09-.81-1.63a17.8,17.8,0,0,1-.88-2.28,7.44,7.44,0,0,0,2.1-.77,2.29,2.29,0,0,0,1-1.61,1.07,1.07,0,0,0-1.16-1.09c-.89.1-1.67,1.53-1.84,2.32,0,.06-.09,1-.09,1.12l-.05-.14a13.28,13.28,0,0,1-.45-2.4c-.05-.45-.08-.88-.09-1.3a6.94,6.94,0,0,0,2.12-.53,2.26,2.26,0,0,0,1.15-1.48,1.08,1.08,0,0,0-1-1.22c-.9,0-1.83,1.34-2.08,2.1l-.17.8c0-.19,0-.38,0-.56,0-.69,0-1.31.08-1.86,0-.32.06-.6.09-.87a7.06,7.06,0,0,0,1.63-1.44,2.22,2.22,0,0,0,.33-1.85,1.06,1.06,0,0,0-1.47-.6c-.8.41-1,2-.88,2.82,0,.07.32,1.12.33,1.12l0,0c0,.26-.07.53-.11.83,0,.55-.11,1.18-.12,1.86a18.73,18.73,0,0,0,.05,2.22,13.67,13.67,0,0,0,.41,2.44v0c-.14-.23-.56-.84-.6-.88-.53-.61-1.9-1.48-2.73-1.12a1.06,1.06,0,0,0-.48,1.51,2.23,2.23,0,0,0,1.64.92,7.51,7.51,0,0,0,2.2-.34,18.73,18.73,0,0,0,.85,2.37c.2.45.41.9.63,1.34-.13-.19-.25-.35-.27-.37-.53-.61-1.9-1.48-2.73-1.13a1.07,1.07,0,0,0-.48,1.52,2.24,2.24,0,0,0,1.64.92,7.07,7.07,0,0,0,2.14-.33c.08.17.16.34.25.51.41.82.82,1.63,1.2,2.44.13.28.25.57.38.85l-.23-.33c-.53-.6-1.91-1.47-2.74-1.12a1.07,1.07,0,0,0-.47,1.52,2.24,2.24,0,0,0,1.64.92,7.1,7.1,0,0,0,2.07-.31c.12.29.24.59.34.88s.14.39.19.59.11.41.17.61c.09.38.19.78.27,1.16s.11.51.16.76l-.42-.88c-.43-.68-1.66-1.75-2.54-1.52a1.05,1.05,0,0,0-.69,1.42,2.19,2.19,0,0,0,1.47,1.16,7.26,7.26,0,0,0,2.21,0c.09.42.17.82.23,1.21.24,1.34.39,2.46.48,3.25,0,.14,0,.27,0,.38h-2.72l1,19.35h4.62l1-19.35h-2.53l.06-.11c.35-.72.83-1.76,1.35-3l.5-1.27a7.78,7.78,0,0,0,2.21.17,2.29,2.29,0,0,0,1.56-1,1.07,1.07,0,0,0-.59-1.47c-.86-.29-2.16.68-2.64,1.33,0,0-.29.49-.45.77l.21-.55c.13-.37.26-.74.39-1.15l.18-.59a6.45,6.45,0,0,0,.16-.63c.12-.49.21-1,.3-1.49a7,7,0,0,0,2.09.48,2.21,2.21,0,0,0,1.7-.8,1.07,1.07,0,0,0-.36-1.55c-.8-.41-2.24.35-2.81.92,0,0-.4.49-.59.74,0-.3.09-.61.13-.92.11-.89.2-1.8.29-2.7,0-.28.05-.56.08-.84a7.16,7.16,0,0,0,2.17.51,2.23,2.23,0,0,0,1.7-.79,1.07,1.07,0,0,0-.36-1.55c-.8-.42-2.24.35-2.81.91,0,0-.57.7-.69.87.06-.61.13-1.21.23-1.81a16.47,16.47,0,0,1,.52-2.38,7.44,7.44,0,0,0,2.17.51,2.23,2.23,0,0,0,1.7-.79,1.07,1.07,0,0,0-.36-1.55c-.8-.42-2.24.35-2.81.91,0,.05-.6.75-.7.89a1,1,0,0,0,0-.14,14.45,14.45,0,0,1,.94-2.26c.21-.4.43-.77.65-1.13a7.15,7.15,0,0,0,2.06.73,2.24,2.24,0,0,0,1.78-.61,1.08,1.08,0,0,0-.19-1.58c-.75-.49-2.26.11-2.89.61,0,0-.36.34-.58.57l.3-.47c.38-.57.76-1.07,1.1-1.51l.55-.67a7,7,0,0,0,2.15-.3,2.24,2.24,0,0,0,1.3-1.36A1.07,1.07,0,0,0,332.4,257.57Zm-9.93,24.1c-.55,1.24-1,2.26-1.4,3-.08.14-.14.27-.2.38h-.06q0-.19-.06-.45c-.11-.8-.28-1.93-.55-3.28-.08-.42-.18-.88-.29-1.34a12,12,0,0,0,1.24-.58,8,8,0,0,0,1.79,1.16Z" style="fill: rgb(38, 50, 56); transform-origin: 321.944px 279.98px;" id="elcktbxqw0y37" class="animable"></path><path d="M327.67,263.31s.29-1.06.3-1.13c.11-.79-.14-2.4-1-2.79a1.06,1.06,0,0,0-1.45.64,2.22,2.22,0,0,0,.39,1.84A8,8,0,0,0,327.67,263.31Z" style="fill: rgb(38, 50, 56); transform-origin: 326.728px 261.302px;" id="eloz5f6ge5n0q" class="animable"></path><path d="M97,265a7.35,7.35,0,0,0,2.13.24s-.33-1-.36-1.05c-.33-.69-1.37-1.83-2.22-1.71a1,1,0,0,0-.82,1.27A2.15,2.15,0,0,0,97,265Z" style="fill: rgb(38, 50, 56); transform-origin: 97.41px 263.858px;" id="el3ozszp1rbfd" class="animable"></path><path d="M116.75,259.87c-.85-.09-1.87,1.07-2.18,1.77,0,.07-.34,1.06-.32,1.06h0c-.17.18-.34.38-.52.6-.33.41-.71.88-1.08,1.41s-.76,1.13-1.12,1.78a13.29,13.29,0,0,0-1,2.16v0c0-.25,0-.95,0-1-.1-.76-.74-2.17-1.58-2.32a1,1,0,0,0-1.17,1,2.09,2.09,0,0,0,.81,1.59,7,7,0,0,0,1.92.88,19.31,19.31,0,0,0-.56,2.33c-.08.46-.15.93-.21,1.39,0-.22,0-.41,0-.44-.1-.76-.74-2.17-1.58-2.32a1,1,0,0,0-1.17.95,2.13,2.13,0,0,0,.81,1.59,6.46,6.46,0,0,0,1.87.86c0,.18,0,.36-.07.54-.1.86-.2,1.72-.32,2.56l-.15.88c0-.2,0-.36,0-.38-.1-.76-.74-2.17-1.58-2.33a1,1,0,0,0-1.17,1,2.09,2.09,0,0,0,.81,1.58,6.65,6.65,0,0,0,1.81.85c-.06.29-.12.59-.2.87a5.32,5.32,0,0,1-.16.57l-.18.57c-.13.35-.26.72-.39,1.06s-.19.47-.28.69c.05-.29.13-.87.13-.92a3.93,3.93,0,0,0-.53-1.91,1.77,1.77,0,0,0,0-.23,1,1,0,0,0-1.25-.86c-.82.22-1.35,1.68-1.39,2.44,0,.05,0,.54,0,.85l-.12-.54c-.09-.37-.19-.73-.29-1.12-.06-.19-.12-.38-.17-.57s-.14-.39-.2-.58c-.17-.45-.36-.9-.55-1.34a6.82,6.82,0,0,0,1.91-.72,2.15,2.15,0,0,0,.93-1.52,1,1,0,0,0-1.1-1c-.85.09-1.59,1.45-1.75,2.2,0,.05-.06.6-.08.9-.12-.26-.24-.53-.37-.8-.38-.77-.79-1.53-1.2-2.3l-.37-.7a7.17,7.17,0,0,0,2-.73,2.15,2.15,0,0,0,.93-1.53,1,1,0,0,0-1.1-1c-.85.1-1.59,1.46-1.75,2.21,0,.05-.08.85-.09,1.05-.27-.52-.53-1-.77-1.56a19.23,19.23,0,0,1-.84-2.16,7.1,7.1,0,0,0,2-.74,2.12,2.12,0,0,0,.93-1.52,1,1,0,0,0-1.1-1c-.85.09-1.59,1.45-1.74,2.2,0,.06-.09.91-.1,1.07l0-.13a12.84,12.84,0,0,1-.43-2.28c0-.43-.07-.84-.09-1.24a6.7,6.7,0,0,0,2-.5,2.12,2.12,0,0,0,1.09-1.42,1,1,0,0,0-1-1.15c-.86,0-1.75,1.27-2,2,0,0-.1.45-.16.76,0-.18,0-.37,0-.54,0-.65,0-1.24.08-1.77,0-.3.06-.57.09-.82a6.62,6.62,0,0,0,1.54-1.37,2.09,2.09,0,0,0,.32-1.76,1,1,0,0,0-1.39-.57c-.77.39-1,1.93-.84,2.68,0,.07.3,1.07.31,1.06h0c0,.24-.07.5-.1.79,0,.52-.11,1.12-.12,1.77a16.74,16.74,0,0,0,0,2.1,12.23,12.23,0,0,0,.39,2.32v0l-.57-.83c-.5-.58-1.81-1.41-2.6-1.07a1,1,0,0,0-.45,1.44,2.11,2.11,0,0,0,1.55.87,6.89,6.89,0,0,0,2.09-.32,18.51,18.51,0,0,0,.82,2.25c.18.43.38.86.59,1.28l-.25-.36c-.5-.58-1.81-1.4-2.6-1.07a1,1,0,0,0-.45,1.44,2.12,2.12,0,0,0,1.55.88,7,7,0,0,0,2-.31l.24.48c.39.78.79,1.55,1.15,2.32l.36.81-.22-.31c-.5-.58-1.81-1.41-2.6-1.07a1,1,0,0,0-.45,1.44,2.12,2.12,0,0,0,1.55.88,6.49,6.49,0,0,0,2-.3c.11.28.22.56.32.84s.13.37.18.57.11.38.16.57c.09.36.18.74.26,1.1l.15.73-.4-.84c-.41-.64-1.58-1.66-2.41-1.45a1,1,0,0,0-.67,1.36,2.13,2.13,0,0,0,1.41,1.1,6.87,6.87,0,0,0,2.1,0c.08.39.16.78.22,1.15.22,1.27.36,2.34.45,3.09,0,.14,0,.25,0,.37h-2.58l.94,18.39h4.4l.94-18.39h-2.4l0-.11c.33-.69.79-1.68,1.28-2.89.16-.38.32-.79.48-1.22a6.71,6.71,0,0,0,2.1.17,2.11,2.11,0,0,0,1.48-1,1,1,0,0,0-.56-1.4c-.81-.27-2,.65-2.51,1.27l-.42.73c.06-.17.13-.34.19-.52.13-.35.25-.71.38-1.09.06-.19.11-.38.17-.57s.1-.39.15-.59c.11-.47.2-.94.28-1.42a6.81,6.81,0,0,0,2,.45,2.15,2.15,0,0,0,1.62-.75,1,1,0,0,0-.34-1.48c-.76-.39-2.13.34-2.67.88,0,0-.38.46-.57.7,0-.29.09-.58.13-.87.1-.85.19-1.72.27-2.58,0-.26,0-.52.08-.79a7,7,0,0,0,2.06.48,2.15,2.15,0,0,0,1.62-.75,1,1,0,0,0-.35-1.47c-.76-.4-2.12.33-2.67.87,0,0-.54.66-.65.82.06-.58.12-1.15.21-1.72a17.73,17.73,0,0,1,.5-2.26,7,7,0,0,0,2.07.48,2.13,2.13,0,0,0,1.61-.75,1,1,0,0,0-.34-1.48c-.76-.39-2.13.34-2.67.88,0,0-.58.71-.67.84a.74.74,0,0,0,0-.14,12.49,12.49,0,0,1,.9-2.14c.19-.38.4-.74.61-1.08a6.41,6.41,0,0,0,2,.69,2.08,2.08,0,0,0,1.69-.57,1,1,0,0,0-.18-1.5c-.71-.48-2.15.09-2.75.57l-.55.55c.1-.15.19-.31.29-.45.36-.54.72-1,1-1.43.19-.24.36-.45.53-.64a6.87,6.87,0,0,0,2-.29,2.16,2.16,0,0,0,1.24-1.29A1,1,0,0,0,116.75,259.87Zm-9.44,22.91c-.52,1.19-1,2.16-1.34,2.83-.06.14-.13.26-.18.37h-.06c0-.14,0-.28-.06-.44-.1-.76-.27-1.83-.52-3.11-.08-.41-.17-.84-.27-1.28a11,11,0,0,0,1.17-.55,7.49,7.49,0,0,0,1.71,1.1C107.61,282.08,107.45,282.44,107.31,282.78Z" style="fill: rgb(38, 50, 56); transform-origin: 106.541px 281.423px;" id="elt2bkbeh66mk" class="animable"></path><path d="M112.25,265.32s.28-1,.29-1.06c.1-.76-.14-2.29-.91-2.66a1,1,0,0,0-1.38.61,2.12,2.12,0,0,0,.36,1.75A7.41,7.41,0,0,0,112.25,265.32Z" style="fill: rgb(38, 50, 56); transform-origin: 111.377px 263.413px;" id="ellxt4jk3xopl" class="animable"></path><line x1="335.44" y1="306.37" x2="335.44" y2="118.53" style="fill: none; stroke: rgb(38, 50, 56); stroke-linecap: round; stroke-linejoin: round; transform-origin: 335.44px 212.45px;" id="eljw32p3od6r" class="animable"></line><line x1="167.44" y1="306.37" x2="167.44" y2="119.7" style="fill: none; stroke: rgb(38, 50, 56); stroke-linecap: round; stroke-linejoin: round; transform-origin: 167.44px 213.035px;" id="el4noiji9yz7w" class="animable"></line><line x1="60.19" y1="214.16" x2="408.68" y2="214.16" style="fill: none; stroke: rgb(38, 50, 56); stroke-linecap: round; stroke-linejoin: round; transform-origin: 234.435px 214.16px;" id="elmra3kqxxz3g" class="animable"></line><line x1="216.48" y1="179.66" x2="212.14" y2="182.33" style="fill: none; stroke: rgb(38, 50, 56); stroke-linecap: round; stroke-linejoin: round; stroke-width: 0.5px; transform-origin: 214.31px 180.995px;" id="elkktdaapzqms" class="animable"></line><line x1="289.74" y1="134.51" x2="222.32" y2="176.06" style="fill: none; stroke: rgb(38, 50, 56); stroke-linecap: round; stroke-linejoin: round; stroke-width: 0.5px; transform-origin: 256.03px 155.285px;" id="elhq896fbx8xk" class="animable"></line><line x1="298.64" y1="137.32" x2="244.62" y2="170.6" style="fill: none; stroke: rgb(38, 50, 56); stroke-linecap: round; stroke-linejoin: round; stroke-width: 0.5px; transform-origin: 271.63px 153.96px;" id="elvhnibztjoqs" class="animable"></line><line x1="322.23" y1="122.78" x2="305.91" y2="132.83" style="fill: none; stroke: rgb(38, 50, 56); stroke-linecap: round; stroke-linejoin: round; stroke-width: 0.5px; transform-origin: 314.07px 127.805px;" id="elmtraznsdlg" class="animable"></line><circle cx="166.44" cy="161" r="27" style="fill: rgb(38, 50, 56); transform-origin: 166.44px 161px;" id="el4xq82bsxo4d" class="animable"></circle><circle cx="166.44" cy="161" r="23.42" style="fill: rgb(255, 255, 255); transform-origin: 166.44px 161px;" id="elxppbshy3qu" class="animable"></circle><polyline points="151.25 165.31 166.44 161 166.44 139.75" style="fill: none; stroke: rgb(38, 50, 56); stroke-miterlimit: 10; stroke-width: 2px; transform-origin: 158.845px 152.53px;" id="elj72pm8hvl4f" class="animable"></polyline></g><g id="freepik--Desk--inject-1--inject-8" class="animable" style="transform-origin: 231.44px 380.75px;"><line x1="409.79" y1="380.75" x2="416.44" y2="380.75" style="fill: rgb(255, 255, 255); stroke: rgb(38, 50, 56); stroke-linecap: round; stroke-linejoin: round; transform-origin: 413.115px 380.75px;" id="el5w3goshto4f" class="animable"></line><line x1="46.44" y1="380.75" x2="400.77" y2="380.75" style="fill: rgb(255, 255, 255); stroke: rgb(38, 50, 56); stroke-linecap: round; stroke-linejoin: round; transform-origin: 223.605px 380.75px;" id="elne0p0buljz" class="animable"></line></g><g id="freepik--Plant--inject-1--inject-8" class="animable" style="transform-origin: 106.81px 372.131px;"><path d="M123.22,371.43h-33s0,8.86,4.66,20.45c0,2.22,5.33,4,11.91,4s11.9-1.79,11.9-4a1.26,1.26,0,0,0,0-.33C123.17,380.12,123.22,371.43,123.22,371.43Z" style="fill: rgb(255, 255, 255); stroke: rgb(38, 50, 56); stroke-linecap: round; stroke-linejoin: round; transform-origin: 106.72px 383.655px;" id="elmdox46icpa" class="animable"></path><ellipse cx="106.83" cy="371.43" rx="16.57" ry="4.81" style="fill: rgb(255, 255, 255); stroke: rgb(38, 50, 56); stroke-linecap: round; stroke-linejoin: round; transform-origin: 106.83px 371.43px;" id="elg2xghv5zue7" class="animable"></ellipse><ellipse cx="106.83" cy="371.43" rx="14.87" ry="4.02" style="fill: rgb(255, 255, 255); stroke: rgb(38, 50, 56); stroke-linecap: round; stroke-linejoin: round; transform-origin: 106.83px 371.43px;" id="el3cktuka42as" class="animable"></ellipse><path d="M93.36,373.13c2.38,1.37,7.51,2.31,13.47,2.31s11.09-.94,13.46-2.31c-2.37-1.36-7.51-2.31-13.46-2.31S95.74,371.77,93.36,373.13Z" style="fill: rgb(38, 50, 56); stroke: rgb(38, 50, 56); stroke-linecap: round; stroke-linejoin: round; transform-origin: 106.825px 373.13px;" id="elbhhygoylv8" class="animable"></path><path d="M99.9,373.51s-4.31-10.76-3.05-13.63,5.38-2.51,6.82.36,2.15,13.63,2.15,13.63S101.51,375.31,99.9,373.51Z" style="fill: rgb(19, 84, 228); stroke: rgb(38, 50, 56); stroke-linecap: round; stroke-linejoin: round; transform-origin: 101.22px 366.157px;" id="elnsggp0o45le" class="animable"></path><path d="M103.67,374.59s-3.41-19-2.52-22.6,5.39-4.85,8.61-2.16,2,16.33,2,18.3-.18,6.1-.18,6.1A15,15,0,0,1,103.67,374.59Z" style="fill: rgb(19, 84, 228); stroke: rgb(38, 50, 56); stroke-linecap: round; stroke-linejoin: round; transform-origin: 106.494px 361.669px;" id="el5ey2j5n3ovd" class="animable"></path><path d="M110.66,374.23S108,366.87,109.59,364s4.84-1.79,4.84.54.18,7.9-.18,9.15S111.92,375.31,110.66,374.23Z" style="fill: rgb(19, 84, 228); stroke: rgb(38, 50, 56); stroke-linecap: round; stroke-linejoin: round; transform-origin: 111.779px 368.57px;" id="el83wimin3bfn" class="animable"></path><path d="M106.72,374.05c-4.49-17-.72-25.47-.72-25.47s5.38,9.33,2.51,25.47" style="fill: none; stroke: rgb(38, 50, 56); stroke-linecap: round; stroke-linejoin: round; transform-origin: 106.936px 361.315px;" id="elgmn1j4jmxv" class="animable"></path><path d="M99.36,359.52s-4.13.18,2.69,14.35" style="fill: none; stroke: rgb(38, 50, 56); stroke-linecap: round; stroke-linejoin: round; transform-origin: 100.085px 366.695px;" id="elgubtdnnq38r" class="animable"></path></g><g id="freepik--Character--inject-1--inject-8" class="animable" style="transform-origin: 228.89px 310.121px;"><path d="M241.36,309.73s-64.43-2.19-71,12.45,0,58.57,0,58.57h100.3S285,326.33,277,319,241.36,309.73,241.36,309.73Z" style="fill: rgb(38, 50, 56); stroke: rgb(38, 50, 56); stroke-miterlimit: 10; transform-origin: 223.433px 345.182px;" id="elbiw11whqup4" class="animable"></path><path d="M249.2,204.24s-3.5-1.62-5.54.44-3.73,3.13-5.31,3.22-5.39-1.05-6.48,1.86-3.15,2.69-4.5,3.06-5.67,1.68-5.85,3.42.11,4-1.5,4.37-5.52.19-6.06,2.9a7.41,7.41,0,0,1-4.21,5.35c-1.63.59-5,0-5.28,3s-.35,6-.35,6l-1.86,2.82s-3.06,1.7-2.32,4.79,3.67,5.15.25,7.82-5.64,4-4.06,6.37,4.21,2.44,3.67,5.15-4.29,6.1-.24,7.51,5.16.78,4.65,3.24,2.37,5,3.67,5.15.72.58,1.72,3.69a5.78,5.78,0,0,0,4.83,4c1,.11,2.38-.26,4,1.67s17.56,15.36,35,16.88a61.09,61.09,0,0,0,31.44-5.09c3.55-1.4,7.22-4,7.19-6.3s4.69-2.29,6.45-4.12,2.09-2.55,2.09-5.06.24-5,1.2-6.67,2.09-2.55,1.83-5.09,1.64-5.86,2.83-7.25,2.43-3.27.19-7-3.2-4.6-2.37-7.53,2.16-5.81.31-8.26a9.65,9.65,0,0,1-1.9-7c.2-2,1.65-3.35-1.31-5.16s-2.94-4.57-3.34-5.87.31-3-3.17-4.85a10.61,10.61,0,0,1-5.15-6c-.62-1.57-2.42-4.52-5.48-5.33s-4.64-.73-6.72-3.45-4-4.93-6.81-5.22-2.62,0-6.84.31a13.63,13.63,0,0,1-7-1C255.86,200.64,252.74,197.81,249.2,204.24Z" style="fill: rgb(38, 50, 56); stroke: rgb(38, 50, 56); stroke-linecap: round; stroke-linejoin: round; transform-origin: 251.752px 253.674px;" id="eldc76eyk4ram" class="animable"></path><path d="M203.7,254.14c2.12-1.51-.91-7.27.91-10.9s2.12-3.33,3.63-7,.91-4.55,3.94-5.15,5.15-3.33,8.48-7.27,5.75-1.21,8.48-5.45,1.21-5.15,4.84-5.75,8.18-1.52,10.6-3.34a12.28,12.28,0,0,1,7.27-2.42,10.77,10.77,0,0,0,3.63-.6,11.4,11.4,0,0,1,5.45-1.52c3,0,3,1.21,8.18,0m-13.63,5.45s-8.17,4.24-9.08,7-5.45,0-8.78,3.63-2.12,7.57-5.76,9.09-11.2,1.51-11.5,6.36-.61,7.87-3,10.29-5.45,3-3.33,6.36,3.33,5.15.3,9.09-8.18,5.14-3.63,9.38,7.57,4.55,5.75,7.57,2.72,4.55,3.94,5.15" style="fill: none; stroke: rgb(255, 255, 255); stroke-miterlimit: 10; transform-origin: 236.405px 244.425px;" id="ele3zg0p7k5m9" class="animable"></path><path d="M224.9,254.45s6.66,0,8.78-1.82,4.24-4.54,7-3,5.45.91,7-2.73-2.42-5.14,3-5.14,5.75-1.21,8.17-5.45-.6-4.24,6.67-4.55,7.87-5.14,10.6-4.84,3.93.91,1.21,6.66-5.15,6.36-1.52,9.39,7.27,2.12,5.15,9.08-.3,7.57.61,10.3,2.12,3.63-1.82,7.27-5.15,3.33-4.24,7.57,1.82,6-1.51,7.57-6.06,3.63-4.55,5.15,2.12,1.81,1.22,3" style="fill: none; stroke: rgb(255, 255, 255); stroke-miterlimit: 10; transform-origin: 253.693px 259.908px;" id="eln8zq6hw99zp" class="animable"></path><path d="M236.44,283.25s-18,2.5-31.5,4.5-23,4.25-23.25,8.75-19.75,52-22,53.5a11.82,11.82,0,0,0-5.25,8.75,35.24,35.24,0,0,1-2.5,9s8.75-1,12.5,2,6,4.75,6,4.75,10.5-6.75,12-10.25-3.25-11-1.75-13.5,7.5-10.75,7.5-10.75,8,25,9,30.25a23.62,23.62,0,0,1-.75,10.5h70.25V360c0-3.75,2.75-15.5,2.75-15.5s6.75,19.5,8.5,24.75a112.46,112.46,0,0,1,3,11.5h24s-8.25-24.75-11.25-32.5-6.5-38.75-8-42.5-22.75-15.5-33.25-18A161.24,161.24,0,0,1,236.44,283.25Z" style="fill: rgb(19, 84, 228); transform-origin: 228.44px 332px;" id="eletvsq28sfa" class="animable"></path><g style="clip-path: url(&quot;#freepik--clip-path--inject-1--inject-8&quot;); transform-origin: 228.44px 335.351px;" id="eluz5p2kd60i" class="animable"><g id="eluan7wj24oyq"><path d="M164.44,369.75c3.75,3,6,4.75,6,4.75s10.5-6.75,12-10.25-3.25-11-1.75-13.5,7.5-10.75,7.5-10.75l.17.53,5.08-6s2,.5,5,11,16,17,13,22.5c-1.94,3.56-3.67,9.2-4.65,12.75h59.9V360c0-3.75,2.75-15.5,2.75-15.5s6.75,19.5,8.5,24.75a112.46,112.46,0,0,1,3,11.5h24s-8.25-24.75-11.25-32.5c-2.55-6.58-5.46-29.94-7.2-39.12a21.31,21.31,0,0,0-3.05-3.13c-7-5.5-24-11.5-28-12s-14-7-25-2.5c0,0-7.5,6.5-13,8s-16.5-9.5-17.5-4a34.91,34.91,0,0,0,0,11s-6-14-5.5-8.5.5,10.5.5,10.5-5.5-12-5.5-7,2.5,11.5,2,15.5-14.5,29-16,31.5-1,7.1-2.75,10.55a9.31,9.31,0,0,1-5.25,4.45s1.5-6.5-4-6-11.5,10.25-11.5,10.25S160.69,366.75,164.44,369.75Z" style="opacity: 0.3; transform-origin: 228.44px 335.351px;" class="animable"></path></g></g><path d="M236.44,283.25s-18,2.5-31.5,4.5-23,4.25-23.25,8.75-19.75,52-22,53.5a11.82,11.82,0,0,0-5.25,8.75,35.24,35.24,0,0,1-2.5,9s8.75-1,12.5,2,6,4.75,6,4.75,10.5-6.75,12-10.25-3.25-11-1.75-13.5,7.5-10.75,7.5-10.75,8,25,9,30.25a23.62,23.62,0,0,1-.75,10.5h70.25V360c0-3.75,2.75-15.5,2.75-15.5s6.75,19.5,8.5,24.75a112.46,112.46,0,0,1,3,11.5h24s-8.25-24.75-11.25-32.5-6.5-38.75-8-42.5-22.75-15.5-33.25-18A161.24,161.24,0,0,1,236.44,283.25Z" style="fill: none; stroke: rgb(38, 50, 56); stroke-linecap: round; stroke-linejoin: round; transform-origin: 228.44px 332px;" id="elppsom0xr4r" class="animable"></path><path d="M241.44,325.75s2.2,22.33,1.27,31.6-4.17,16.23-2.78,22.72" style="fill: none; stroke: rgb(38, 50, 56); stroke-linecap: round; stroke-linejoin: round; transform-origin: 241.264px 352.91px;" id="elm7val715ns" class="animable"></path><line x1="271.44" y1="329" x2="275.44" y2="320.5" style="fill: none; stroke: rgb(38, 50, 56); stroke-linecap: round; stroke-linejoin: round; transform-origin: 273.44px 324.75px;" id="el60y0ps7dkoa" class="animable"></line><path d="M234.19,281.25s-2.75,1.75-3.25,3.5-4.5,6.5-6.25,13.5-.75,19.75.5,16.75,4.5-9.5,5.75-11,1.5.5,2.5,4.75,8,17,8,17,5.25-11.75,8.25-13.5,4.25-7.5,4.25-7.5,3,15,4.75,15,2.5-11.5,1.75-18.5-4-15.5-6-18.25S243.94,271,234.19,281.25Z" style="fill: rgb(255, 255, 255); stroke: rgb(38, 50, 56); stroke-linecap: round; stroke-linejoin: round; transform-origin: 242.239px 301.143px;" id="elee207xmlef8" class="animable"></path><path d="M234.44,279.75s-1,19.5.5,28,5.25,21,6.5,18,9.25-17.75,10.5-24.5a72.61,72.61,0,0,1,4.5-14S241.44,289,234.44,279.75Z" style="fill: rgb(255, 255, 255); stroke: rgb(38, 50, 56); stroke-linecap: round; stroke-linejoin: round; transform-origin: 245.277px 302.978px;" id="elwqns7kd3cob" class="animable"></path><path d="M270.82,235.6s-4.36,1.25-5.45,3.68-2,2.62-4.76,5.16-3.61,2.17-5.79,4.21-3.86,1.86-6.43,2.16-4.81.08-6,.8a29,29,0,0,1-3.56,1.62s-1.59-1-2.82,2.81-2.71,12.71-1.8,17.6,4.53,16.55,10.17,19.39,19.26-6.23,22.76-10.1,10.72-22.06,11-25.13-4.46-8.92-5.35-11.27.37-3.63-1.38-5.79S270.82,235.6,270.82,235.6Z" style="fill: rgb(255, 255, 255); stroke: rgb(38, 50, 56); stroke-linecap: round; stroke-linejoin: round; transform-origin: 256.04px 264.586px;" id="els8dfil488yo" class="animable"></path><path d="M256.79,274.26s-.8,1.39-3.57,1.11-3.86-2.37-3.54-4" style="fill: none; stroke: rgb(38, 50, 56); stroke-linecap: round; stroke-linejoin: round; transform-origin: 253.208px 273.389px;" id="elh26q8sh3ezk" class="animable"></path><path d="M246.06,276.29a14.7,14.7,0,0,0,9.34,3.58" style="fill: none; stroke: rgb(38, 50, 56); stroke-linecap: round; stroke-linejoin: round; transform-origin: 250.73px 278.08px;" id="elpmvueuwqigk" class="animable"></path><path d="M251.35,259.89l-1.06,2.36s-3.62,1.6-6.91-3.17" style="fill: none; stroke: rgb(38, 50, 56); stroke-linecap: round; stroke-linejoin: round; transform-origin: 247.365px 260.794px;" id="el05xhtvdtpyw" class="animable"></path><path d="M268,266.35l-.88,2.21s-4.54,1-6-2.74" style="fill: none; stroke: rgb(38, 50, 56); stroke-linecap: round; stroke-linejoin: round; transform-origin: 264.56px 267.251px;" id="elmoqnvby3khe" class="animable"></path><path d="M263,258.61s7.52-2.85,9.61,4.11" style="fill: none; stroke: rgb(38, 50, 56); stroke-linecap: round; stroke-linejoin: round; transform-origin: 267.805px 260.376px;" id="el1kzg8a369ln" class="animable"></path><path d="M254.74,255.64s-2.65-6.19-10-3.49" style="fill: none; stroke: rgb(38, 50, 56); stroke-linecap: round; stroke-linejoin: round; transform-origin: 249.74px 253.554px;" id="el6vjdcrf2ohq" class="animable"></path><path d="M250.29,262.25s-1.37.52-4.23-.43a6.18,6.18,0,0,1-3.75-3.51S242.29,264.89,250.29,262.25Z" style="fill: rgb(38, 50, 56); transform-origin: 246.3px 260.592px;" id="el7nrdp4gfte5" class="animable"></path><path d="M268,269s-1.37.52-4.23-.43a6.18,6.18,0,0,1-3.75-3.51S260,271.63,268,269Z" style="fill: rgb(38, 50, 56); transform-origin: 264.01px 267.341px;" id="elrlgvqf01vdm" class="animable"></path><path d="M188.19,340s8.5-13.75,13-23.25" style="fill: rgb(255, 255, 255); stroke: rgb(38, 50, 56); stroke-linecap: round; stroke-linejoin: round; transform-origin: 194.69px 328.375px;" id="el0ehbyeuyjtn" class="animable"></path><path d="M194.69,330a31.18,31.18,0,0,0,9.5-9.75" style="fill: none; stroke: rgb(38, 50, 56); stroke-linecap: round; stroke-linejoin: round; transform-origin: 199.44px 325.125px;" id="el6vy70zt9j17" class="animable"></path><polygon points="141.44 389 193.11 389 221.27 408.17 161.94 408.17 141.44 389" style="fill: rgb(255, 255, 255); stroke: rgb(38, 50, 56); stroke-linecap: round; stroke-linejoin: round; transform-origin: 181.355px 398.585px;" id="elwsydemvd8dm" class="animable"></polygon><line x1="207.94" y1="404" x2="166.44" y2="404" style="fill: none; stroke: rgb(38, 50, 56); stroke-linecap: round; stroke-linejoin: round; transform-origin: 187.19px 404px;" id="el0gj8jfm1p6ys" class="animable"></line><line x1="203.94" y1="400" x2="162.44" y2="400" style="fill: none; stroke: rgb(38, 50, 56); stroke-linecap: round; stroke-linejoin: round; transform-origin: 183.19px 400px;" id="elcuen1ur5r6q" class="animable"></line><line x1="199.94" y1="396" x2="158.44" y2="396" style="fill: none; stroke: rgb(38, 50, 56); stroke-linecap: round; stroke-linejoin: round; transform-origin: 179.19px 396px;" id="ele10jfw6w83d" class="animable"></line><polygon points="105.44 401 157.11 401 185.27 420.17 125.94 420.17 105.44 401" style="fill: rgb(255, 255, 255); stroke: rgb(38, 50, 56); stroke-linecap: round; stroke-linejoin: round; transform-origin: 145.355px 410.585px;" id="elzciwn0cohxa" class="animable"></polygon><line x1="171.94" y1="416" x2="130.44" y2="416" style="fill: none; stroke: rgb(38, 50, 56); stroke-linecap: round; stroke-linejoin: round; transform-origin: 151.19px 416px;" id="eloz44hred6qj" class="animable"></line><line x1="167.94" y1="412" x2="126.44" y2="412" style="fill: none; stroke: rgb(38, 50, 56); stroke-linecap: round; stroke-linejoin: round; transform-origin: 147.19px 412px;" id="elqmxuwjofcf" class="animable"></line><line x1="163.94" y1="408" x2="122.44" y2="408" style="fill: none; stroke: rgb(38, 50, 56); stroke-linecap: round; stroke-linejoin: round; transform-origin: 143.19px 408px;" id="eladhdl1bggq7" class="animable"></line><path d="M178.11,379.33s-4.67-7-7.5-11.33-9-7.33-14.5-6-8.17,6.33-8.17,11.67.5,9.66,6.33,12.83,18.84,4.83,18.84,4.83S182.94,395,178.11,379.33Z" style="fill: rgb(255, 255, 255); stroke: rgb(38, 50, 56); stroke-linecap: round; stroke-linejoin: round; transform-origin: 163.692px 376.693px;" id="elkp9a8ua3tij" class="animable"></path><path d="M173.25,377.76s-6.39,2-6.83,4.4-1.1,7.72-.66,10.14,6.17,2.21,10.14,2.21,5.95-4,5.07-5.29-4.41-2-5.73-5.07A37.67,37.67,0,0,1,173.25,377.76Z" style="fill: rgb(255, 255, 255); stroke: rgb(38, 50, 56); stroke-linecap: round; stroke-linejoin: round; transform-origin: 173.396px 386.137px;" id="el5oxq5gc2xme" class="animable"></path><path d="M178.58,379.85c-.94-2.11-2.13-4.09-2.66-5.24-1.43-3.08-4.55-3.21-4.72.69-.1,2.21,4,15.12,7.56,12.15C180.69,385.85,179.86,382.72,178.58,379.85Z" style="fill: rgb(255, 255, 255); stroke: rgb(38, 50, 56); stroke-linecap: round; stroke-linejoin: round; transform-origin: 175.55px 380.112px;" id="el8krg16f46bk" class="animable"></path><path d="M166.64,383.05s.22,2.64,5.51,5.73,6.83,2,8.6,2" style="fill: rgb(255, 255, 255); stroke: rgb(38, 50, 56); stroke-linecap: round; stroke-linejoin: round; transform-origin: 173.695px 387.008px;" id="el931fpj5t3y7" class="animable"></path><path d="M165.76,388.34s.65,4.34,12.77,5.22" style="fill: rgb(255, 255, 255); stroke: rgb(38, 50, 56); stroke-linecap: round; stroke-linejoin: round; transform-origin: 172.145px 390.95px;" id="elcbdxqupkjiv" class="animable"></path><path d="M182.2,391,171.76,361a1.5,1.5,0,0,1,.93-1.91h0a1.5,1.5,0,0,1,1.91.93L185,390.05Z" style="fill: rgb(38, 50, 56); transform-origin: 178.339px 375.004px;" id="el9mvv47r89bv" class="animable"></path><polygon points="182.2 391.03 185.02 394.64 185.03 390.05 182.2 391.03" style="fill: rgb(255, 255, 255); transform-origin: 183.615px 392.345px;" id="elm50hxg32sg" class="animable"></polygon><path d="M184,393.33l1,1.31V393A4.42,4.42,0,0,0,184,393.33Z" style="fill: rgb(38, 50, 56); transform-origin: 184.5px 393.82px;" id="elkn5axryuxcg" class="animable"></path><path d="M174.6,360a1.5,1.5,0,0,0-2.84,1l1,3,2.8-1.07Z" style="fill: rgb(255, 255, 255); transform-origin: 173.617px 361.497px;" id="el4fb42un7wsa" class="animable"></path><path d="M178.44,371.83s3-1.16,4.5,0,2.33,4.17,2.33,7.67,1.67,8-1.33,7.83S178.44,371.83,178.44,371.83Z" style="fill: rgb(255, 255, 255); stroke: rgb(38, 50, 56); stroke-linecap: round; stroke-linejoin: round; transform-origin: 182.087px 379.325px;" id="el4tbc9yhiwdg" class="animable"></path><polygon points="244.54 398.67 221.77 384.33 308.77 384.33 341.2 398.67 244.54 398.67" style="fill: rgb(255, 255, 255); stroke: rgb(38, 50, 56); stroke-linecap: round; stroke-linejoin: round; transform-origin: 281.485px 391.5px;" id="elt7o6ujqv1j" class="animable"></polygon><polygon points="341.2 398.67 244.54 398.67 255.67 329.67 352.34 329.67 341.2 398.67" style="fill: rgb(255, 255, 255); stroke: rgb(38, 50, 56); stroke-linecap: round; stroke-linejoin: round; transform-origin: 298.44px 364.17px;" id="el3yd0okxby7a" class="animable"></polygon><path d="M346.66,364.86c-16.37,3.72-30.49,0-58.51,4.55-27.45,4.42-38.55,16.93-43,25.44l-.61,3.82H341.2Z" style="fill: rgb(38, 50, 56); stroke: rgb(38, 50, 56); stroke-miterlimit: 10; transform-origin: 295.6px 381.765px;" id="el7cyna8g2l2v" class="animable"></path><path d="M346.76,373.36s-5.48.7-7.45,2.95-.42,3.1,1.27,3.1,7.31,0,9.84-3C352.47,374.05,351.12,373.08,346.76,373.36Z" style="fill: rgb(255, 255, 255); stroke: rgb(38, 50, 56); stroke-linecap: round; stroke-linejoin: round; transform-origin: 344.873px 376.362px;" id="el719jtq0okw" class="animable"></path><path d="M344.93,389.39s-5.48.7-7.45,2.95-.42,3.09,1.27,3.09,7.31,0,9.84-2.95C350.65,390.08,349.29,389.11,344.93,389.39Z" style="fill: rgb(255, 255, 255); stroke: rgb(38, 50, 56); stroke-linecap: round; stroke-linejoin: round; transform-origin: 343.045px 392.387px;" id="el3w042ioo2ss" class="animable"></path><path d="M345.5,385.17s-5.49.7-7.46,2.95-.42,3.1,1.27,3.1,7.31,0,9.84-3C351.21,385.87,349.85,384.89,345.5,385.17Z" style="fill: rgb(255, 255, 255); stroke: rgb(38, 50, 56); stroke-linecap: round; stroke-linejoin: round; transform-origin: 343.605px 388.172px;" id="elph17djh9eos" class="animable"></path><path d="M345.64,380.39s-5.49.7-7.45,2.95-.43,3.1,1.26,3.1,7.31,0,9.84-3C351.35,381.08,350,380.11,345.64,380.39Z" style="fill: rgb(255, 255, 255); stroke: rgb(38, 50, 56); stroke-linecap: round; stroke-linejoin: round; transform-origin: 343.752px 383.392px;" id="eliqas2ri7kds" class="animable"></path></g><defs>     <filter id="active" height="200%">         <feMorphology in="SourceAlpha" result="DILATED" operator="dilate" radius="2"></feMorphology>                <feFlood flood-color="#32DFEC" flood-opacity="1" result="PINK"></feFlood>        <feComposite in="PINK" in2="DILATED" operator="in" result="OUTLINE"></feComposite>        <feMerge>            <feMergeNode in="OUTLINE"></feMergeNode>            <feMergeNode in="SourceGraphic"></feMergeNode>        </feMerge>    </filter>    <filter id="hover" height="200%">        <feMorphology in="SourceAlpha" result="DILATED" operator="dilate" radius="2"></feMorphology>                <feFlood flood-color="#ff0000" flood-opacity="0.5" result="PINK"></feFlood>        <feComposite in="PINK" in2="DILATED" operator="in" result="OUTLINE"></feComposite>        <feMerge>            <feMergeNode in="OUTLINE"></feMergeNode>            <feMergeNode in="SourceGraphic"></feMergeNode>        </feMerge>            <feColorMatrix type="matrix" values="0   0   0   0   0                0   1   0   0   0                0   0   0   0   0                0   0   0   1   0 "></feColorMatrix>    </filter></defs><defs><clipPath id="freepik--clip-path--inject-1--inject-8"><path d="M236.44,283.25s-18,2.5-31.5,4.5-23,4.25-23.25,8.75-19.75,52-22,53.5a11.82,11.82,0,0,0-5.25,8.75,35.24,35.24,0,0,1-2.5,9s8.75-1,12.5,2,6,4.75,6,4.75,10.5-6.75,12-10.25-3.25-11-1.75-13.5,7.5-10.75,7.5-10.75,8,25,9,30.25a23.62,23.62,0,0,1-.75,10.5h70.25V360c0-3.75,2.75-15.5,2.75-15.5s6.75,19.5,8.5,24.75a112.46,112.46,0,0,1,3,11.5h24s-8.25-24.75-11.25-32.5-6.5-38.75-8-42.5-22.75-15.5-33.25-18A161.24,161.24,0,0,1,236.44,283.25Z" style="fill:#1354E4;stroke:#263238;stroke-linecap:round;stroke-linejoin:round"></path></clipPath></defs></svg>